<?xml version="1.0" encoding="UTF-8"?>
<svg xmlns="http://www.w3.org/2000/svg" version="1.1" xmlns:xlink="http://www.w3.org/1999/xlink" viewBox="0 0 504 288">
  <defs>
    <style>
      .cls-1 {
        fill: #290559;
      }

      .cls-2 {
        fill: #6f39d8;
      }

      .cls-3 {
        filter: url(#drop-shadow-1);
      }

      .cls-4 {
        fill: #612faf;
      }

      .cls-5 {
        display: none;
      }

      .cls-6 {
        fill: #8c2e99;
      }
    </style>
    <filter id="drop-shadow-1" filterUnits="userSpaceOnUse">
      <feOffset dx="0" dy="9"/>
      <feGaussianBlur result="blur" stdDeviation="5"/>
      <feFlood flood-color="#000" flood-opacity=".7"/>
      <feComposite in2="blur" operator="in"/>
      <feComposite in="SourceGraphic"/>
    </filter>
  </defs>
  <!-- Generator: Adobe Illustrator 28.6.0, SVG Export Plug-In . SVG Version: 1.2.0 Build 709)  -->
  <g>
    <g id="Layer_1">
      <g class="cls-3">
        <g id="p-2">
          <path id="p-3" class="cls-2" d="M85.3,153.6h-10.2c.7.7,1.4,1.4,2.2,2.2h8c.4,0,.7-.3.7-.8v-.6c0-.5-.3-.8-.7-.8h0ZM51,153.6c-.4,0-.6.3-.6.8v.6c0,.5.2.8.6.8h7.6c0-.8.3-1.5.5-2.2h-8.1Z"/>
          <path class="cls-2" d="M88.3,39.2c-5.7,0-10.9,2.2-14.9,6.7l-.4-.2v-4.8c0-.5-.3-.8-.8-.6l-3.5.5c-2.2.2-5.3.3-8.8.3h-8.9c-.4,0-.6.3-.6.8v.6c0,.5.2.8.6.8h8.2c.4,0,.7.3.7.8v108.8c0,.5-.3.8-.7.8h-.3c-.2.7-.4,1.4-.5,2.2h18.7c-.7-.8-1.5-1.5-2.2-2.2h-.8c-.4,0-.6-.3-.6-.8v-40.1c0-.5.3-.8.6-.8h8.8c20.2,0,34-12.8,34-37s-14.7-35.8-28.7-35.8h0ZM81.3,108.4h-7c-.4,0-.6-.3-.6-.8v-55.8c1.9-5.4,6.6-8.7,11.1-8.7,9.8,0,16.9,10.3,16.9,31.7s-5.8,33.6-20.4,33.6Z"/>
        </g>
        <g id="h">
          <path class="cls-2" d="M205,181.6v.6c0,.5-.3.8-.6.8h-31.9c-.4,0-.6-.3-.6-.8v-.6c0-.5.2-.8.6-.8h8.6c.2,0,.4-.4.4-.7v-.4c.4-1,.8-1.9,1.1-2.6,1-2.1,2.3-3.7,3.6-5,2.4-2.3,5-3.4,6.5-4,.5-.2.9-.3,1.4-.5.3-.1.5-.2.6-.1.2,0,.3.4.4.8l.3,5.6v6.3c0,.3.1.6.3.7h8.7c.4,0,.6.3.6.8h0Z"/>
          <path class="cls-2" d="M205,90.5v.6c0,.5-.3.8-.6.8h-8.4c-.4,0-.6.3-.6.8v29l-4.3,9c-.2.4-.2.8.1.8l2.5.5v.3l1.1,31.1c0,.6,0,.8-.2.9-.1,0-.2,0-.3.1-1.8.6-4.4.5-7.3.4-1.7,0-3.6-.2-5.5-.1v-30.3c0-.5-.3-.8-.6-.8h-9.7c-12.8,0-18.7,7.1-20.7,20.2v26.1c0,.5.3.8.6.8h8.4c.4,0,.6.3.6.8v.6c0,.5-.2.8-.6.8h-31.9c-.4,0-.7-.3-.7-.8v-.6c0-.5.3-.8.7-.8h8.4c.4,0,.6-.3.6-.8v-87.4c0-.5-.2-.8-.6-.8h-8.2c-.4,0-.7-.3-.7-.8v-.6c0-.5.3-.8.7-.8h8.9c3.5,0,6.7-.2,9.1-.3,1.4-.2,2.8-.3,4-.5.5-.2.8.2.8.6v51.6h.4c3.6-5.9,9-10.9,19.2-10.9h10.8c.4,0,.6-.3.6-.8v-36.8c0-.5-.3-.8-.6-.8h-8.4c-.4,0-.6-.3-.6-.8v-.6c0-.5.2-.8.6-.8h31.9c.4,0,.6.3.6.8h0v.3Z"/>
        </g>
        <path id="i-2" class="cls-2" d="M247,64.5h-31.9c-.4,0-.6.3-.6.8v.6c0,.5.3.8.6.8h8.4c.4,0,.6.3.6.8v87.4c0,.5-.3.8-.6.8h-8.4c-.4,0-.6.3-.6.8v.6c0,.5.3.8.6.8h27.9c0-.7.2-1.5.3-2.2h-4.6c-.4,0-.6-.3-.6-.8v-87.4c0-.5.3-.8.6-.8h8.4c.4,0,.6-.3.6-.8v-.6c0-.5-.3-.8-.6-.8h0ZM231.4,30.8c-4.8,0-8.8,5-8.8,10.6s4,10.4,8.8,10.4,8.6-5,8.6-10.4-4-10.6-8.6-10.6Z"/>
        <g id="l-2">
          <path id="l-3" class="cls-2" d="M312.8,95.2h-.6c-.4,0-.6.3-.6.8-2.4,23.9-3.1,35.7-20.9,38.1l.6,3.1h21.5c.4,0,.6-.3.6-.8v-40.4c0-.5-.3-.8-.6-.8h0Z"/>
          <path class="cls-2" d="M266.6,46.9c0-.5-.3-.8-.6-.8h-8.2c-.4,0-.6-.3-.6-.8v-.6c0-.5.3-.8.6-.8h8.9c3.5,0,6.7-.2,9.1-.3l4-.5c.5-.2.8.2.8.6v90.4c0,.2.2.3.4.4h0c.9.8,1.8,1.7,2.6,2.6h-19.5c.2-.8.5-1.5.8-2.2h1c.4,0,.6-.3.6-.8V46.9h.1Z"/>
        </g>
        <g id="e-2">
          <path id="e-3" class="cls-2" d="M379,146.7c0-.5.3-.7.6-.7l4,.6v-17.3c0-.5-.2-.8-.6-.8h-.4c-.2,0-.5.3-.6.8-2.7,10.9-7.1,18.2-12.2,22.3.5,1.3,1,2.7,1.3,4.1,2.3-1.3,4.1-2.3,6.4-2.3s3.2,1.2,4.2,3.6c0,.5.3.8.6.8h.9c-.9-4.2-2.6-7.7-4-9.2-.4-.4-.5-.4-.4-.9v-.9h.2Z"/>
          <path class="cls-2" d="M381.4,65.4v26.4c0,.5-.2.8-.6.8h-.5c-.1,0-.5-.2-.6-.8-2.7-18.8-7.3-24.4-21.9-24.4h-12c-.4,0-.6.3-.6.8v34.5l.4.2c1.5-2.3,4.5-4.5,9.5-4.5,9.9,0,19.1,5.9,19.1,21.8s-.3.8-.6.8h-12.2c-.4,0-.6-.3-.6-.8v-.8c0-.5.2-.8.6-.8h1c.4,0,.6-.3.6-.8,0-11.8-3.6-16.8-8.2-16.8s-9,5-9,13.7v12.1c0,4.8.3,9.8,1.1,14.2.4,1.9.8,3.8,1.4,5.4.7,2,1.6,3.7,2.7,5.1,0,.2,0,.5.1.7l.9,7.1c-5.7-.8-10.1-3-13.2-6.4-1-1-1.8-2.2-2.6-3.5-3.4-5.6-4.8-13.3-4.8-22.1v-59.8c0-.5-.3-.8-.6-.8h-8.4c-.4,0-.6-.3-.6-.8v-.6c0-.5.3-.8.6-.8h58.6c.4,0,.6.3.6.8h-.2Z"/>
        </g>
        <g id="a-2">
          <path class="cls-2" d="M475.4,154.1v.6c0,.5-.3.8-.6.8h-30.5c-.4,0-.6-.3-.6-.8v-.6c0-.5.2-.8.6-.8h8.5c.4,0,.5-.3.4-.8l-10.8-32.9c-.3-.6-.6-.8-1.3-.6-1.5.5-3.2.9-4.9,1.4-7.8,2.2-15.9,4.3-17.1,16.8-3,0-6,.5-8.8,1.6-2.1.8-4,1.9-5.7,3.3v-1.6c0-13.1,6.3-18.7,13.6-20.8,3.9-1.1,7.9-1.7,11.5-2.2,4-.5,7.6-1.1,10.4-2.2.4,0,.6-.3.4-1.1l-9.3-29.7h-2.7c-.4,0-.5-.3-.4-.8l7.2-22.7c.1-.5.5-.8.9-.8h1c.4,0,.8.3.9.8l29.9,91.6c.1.5.4.6.8.6h6.1c.4,0,.6.3.6.8h-.1Z"/>
          <path class="cls-2" d="M428.7,154.1c-.9.5-1.9.9-3,1.2-.1,0-.2,0-.3.1-2,.6-4.2,1-6.6,1-3.9,0-7.5-1.2-10.1-3.9-1.2-7.3,0-10.2,2.5-11.2,2.3-.9,5,0,8.9,5.4.7,1.7,1.6,3.2,2.7,4.2,1,1,2.2,1.6,3.5,1.6s1.2-.1,1.8-.5c.4-.2.6,0,.8.5v.6c.3.5.1.8-.2.9h0Z"/>
        </g>
        <path id="M-2" class="cls-6" d="M161.9,226.7l-.2-.7c-.1-.5-.5-.8-.8-.7l-5.1,1.4c-.3,0-.7-.2-.8-.7l-11.6-43h-15.9c-.4,0-.7-.3-.7-.8v-.6c0-.5.3-.8.7-.8h8.4c.4,0,.6-.3.6-.8v-22.5l-1.8-6.8c-5.4-19.9-17.2-24.7-29.4-21.4-9.1,2.5-14.2,8.3-15.8,12.3-.2.6-.3.3-.5.1-2.7-1.7-8.1-4.6-15.3-3.6v14.2c.5.4.9.8,1.4,1.3s1.4,1.4,2.2,2.2c1.2,1.2,2.3,2.5,3.5,3.9.3.3,0,.5,0,.9-4.9,13-7.6,28.8-4.4,40.6,2.5,9.3,9.3,18.8,19.8,31l8.5,9.9c.4.5.5.8.8.7l6.3-1.7c.3-.1.2-.4.3-1l1.7-12.7c2.9-22.5,2.6-37.3-1.1-50.8-2-7.3-6.9-21.4-21.3-32.9-.3-.3-.2-.3,0-.5.7-1.9,3.9-4,6.6-4.8,7.3-2,13.4,5.5,16.3,16.4l20.7,76.5c.1.5,0,.9-.3,1l-5.1,1.4c-.3,0-.5.5-.3,1l.2.7c.1.5.5.8.8.7l31.4-8.5c.3-.1.5-.5.3-1h0ZM112.2,221h-.4c-14.8-15-24.4-29.7-27.7-41.8-2.1-7.8-1.7-15.1-.9-16.5h.4c2.9,3.4,30.4,25.3,28.7,58.2h0ZM88.7,246.5l-.2-.7c0-.5-.5-.8-.8-.7l-5.1,1.4c-.3,0-.7-.2-.8-.7l-23.6-87c0-1.1.2-2,.3-3,0-.8.3-1.5.5-2.2.3-.9.6-1.6.9-2.3v-5.1c-1.3,2-2.3,4.4-3.2,7.4,0,.4-.2.8-.3,1.1-.2.8-.6,1.1-.7.9l-2.3-2.1-6.8-6.2-17.8,4.8c-.3,0-.5.5-.3,1l.2.7c.1.5.5.8.8.7l5-1.4c.3,0,.7.2.8.7l26.4,97.2c0,.5,0,.9-.3,1l-5.1,1.4c-.3,0-.5.5-.3,1l.2.7c0,.5.5.8.8.7l31.4-8.5c.3,0,.5-.5.3-1h0v.2Z"/>
        <path id="A" class="cls-6" d="M218.9,209.4v.6c-.2.5-.5.7-.8.7l-26.8-5.6c-.3,0-.4-.4-.3-.9v-.6c.2-.5.5-.7.8-.7l4.6,1c.3,0,.5-.2.5-.7l-1-20.2h8.6c.4,0,.6-.3.6-.8v-.6c0-.5-.3-.8-.6-.8h-8.7l-.2-4.9v-2.1c-.1,0-.4-5.6-.4-5.6,0-.4-.1-.7-.4-.8-.1,0-.4,0-.6.1-.5.2-.9.3-1.4.5-1.5.6-4.1,1.7-6.5,4-1.3,1.3-2.6,2.9-3.6,5-.4.8-.8,1.7-1.1,2.6-.1.4-.3.8-.4,1.2h-8.6c-.4,0-.6.3-.6.8v.6c0,.5.2.8.6.8h7.9c-.4,1.3-.7,2.7-1.1,4.3-2.1,10.2,1,12.3,2.3,11.9.2-.1.3,0,.3.4v1.1c0,.5-.2.8-.5.9-.3,0-5,1.4-10.1.3-6.8-1.4-12.4-6.8-9.7-19.9,3-14.6,11.8-17.1,19.8-17.3,1.9,0,3.8,0,5.5.1,2.9.1,5.5.2,7.3-.4.1,0,.2,0,.3-.1s.2-.3.2-.9l-1.1-31.1v-.3l-2.5-.5c-.3,0-.3-.4-.1-.8l4.3-9,5.3-11c.2-.4.7-.7.9-.6l10.1,2.1c.3,0,.5.4.5.9l4.2,94.3c0,.5.2.7.5.7l1.7.4c.3,0,.4.4.3.9h0Z"/>
        <g id="G">
          <path class="cls-6" d="M293.7,152.4h-.3c-.3.1-.5-.2-.6-.6-2.1-4.9-5.4-10.4-9.1-14.6-.8-1-1.7-1.9-2.6-2.6h0c-.1-.1-.3-.3-.4-.4v-6c4.6.5,7.2,1.3,7.3-.7,0-.5,0-.8.4-.9h.5c.3-.2.6,0,.6.6l1.3,7,.6,3.1,2.8,14.3c0,.5,0,.8-.4.9h0Z"/>
          <path id="G-2" class="cls-6" d="M288.7,250.4c-11.8,2.3-23.2-4.2-25.7-17.3-1.4-7.4.8-13.7,5.4-14.6,4.4-.9,9.1,3.7,10.3,10.2,1.2,6.1-1,11.1-5.8,12.7-1.2.4-1.6,1.8-.1,3.2,1.8,1.8,6.6,4,10.8,3.2,7-1.4,11-11,7-31.9l-2.9-14.9-.3-.3c-1.3,2.7-3,5.9-9.1,7.1-12,2.3-29.1-5.7-34.4-33.1-1.2-6.2-1.5-11.9-1-17.1,0-.7.2-1.5.3-2.2,2.1-14.2,10.6-23.7,23.3-26.8v3.7c-.6.7-1.2,1.5-1.7,2.5-.3.6-.6,1.4-.8,2.2-1.8,6.4-1,17,1.9,31.6,4.3,22.4,9.6,35.5,15.9,34.3,2.2-.4,4.1-2.6,5-6.3l-5.6-28.9c0-.5-.4-.7-.6-.7l-3.7.7c-.3,0-.6-.2-.6-.7v-.6c-.2-.5,0-.8.2-.9l22.6-4.4c.3,0,.6.2.6.7l10,52c4,20.8-8.1,33.8-21.2,36.3h0l.2.3Z"/>
        </g>
        <g id="N">
          <path class="cls-6" d="M345.2,235.1v.6c-.2.5-.4.8-.7.7l-29.5-4.8c-.3,0-.5-.4-.4-.9v-.6c.2-.5.4-.8.7-.7l4.5.7c.3,0,.6-.2.6-.7l10.9-67.7c.8-5,2.4-9.1,4.5-12.3.8,1.3,1.6,2.4,2.6,3.5-.2.6-.3,1.2-.4,1.9-2.5,15.3,7.6,41.4,4,64l-2.2,13.7c0,.5,0,.8.4.9l4.5.7c.3,0,.5.4.4.9h.1Z"/>
          <path class="cls-6" d="M395.6,149.4v.9c-.2.5-.4.6-.8.7-3.8,1.6-8.4,8.2-9.6,15.9l-11.5,71.2c0,.5,0,.8.4.9l5.3.9c.3,0,.5.4.4.9v.6c-.2.5-.4.8-.7.7l-24.6-4c-.3,0-.5-.4-.4-.9v-.6c.2-.5.4-.8.7-.7l5.7.9c.4,0,.6-.4.5-.7l-9.3-76.7-.9-7.1c0-.2,0-.5-.1-.7-.4-2.1-1.3-4-2.7-5.1-.6-1.7-1.1-3.5-1.4-5.4,2.9-1,5.9-1.2,8.9-.7,6.3,1,11.5,5.1,14.2,11.4.5,1.3,1,2.7,1.3,4.1.2.9.3,1.8.4,2.7l5.1,47.8h.5l6.4-39.6c.5-3.1.3-6.1-.3-8.9-.9-4.2-2.6-7.7-4-9.2-.4-.4-.5-.4-.4-.9v-.9c.2-.5.5-.7.8-.7l4,.6,11.7,1.9c.3,0,.5.4.4.9h0v-.2Z"/>
        </g>
        <path id="O-2" class="cls-6" d="M456.8,174.8c-3-7.7-6.4-14.1-10.1-19.3h-2.5c-.4,0-.6-.3-.6-.8v-.6c0-.5.2-.8.6-.8h.9c-8.2-10.9-17.4-16-26.1-16.1-3,0-6,.5-8.8,1.6-2.1.8-4,1.9-5.7,3.3-10.9,8.5-14.2,27.3-3.3,54.7,12.6,31.7,30.2,39.7,45.4,33.7,15.2-6,22.8-24,10.2-55.7h0ZM445.7,228.2c-5,2-10.6-2.6-25.1-39.2-7.1-17.9-10.7-29.3-11.9-36.4-1.2-7.3,0-10.2,2.5-11.2,2.3-.9,5,0,8.9,5.4.9,1.2,1.8,2.6,2.7,4.2,1,1,2.2,1.6,3.5,1.6s1.2-.1,1.8-.5c.4-.2.6,0,.8.5v.6c.3.5.1.8-.2.9-.9.5-1.9.9-3,1.2-.1,0-.2,0-.3.1,3.3,6.2,7.2,15,11.9,26.9,14.7,37,13.1,43.9,8.4,45.8h0Z"/>
      </g>
      <g id="Back_Up" class="cls-5">
        <g>
          <path id="p" class="cls-4" d="M90.3,161.7h-10.2c.7.7,1.4,1.4,2.2,2.2h8c.4,0,.7-.3.7-.8v-.6c0-.5-.3-.8-.7-.8h0ZM56.1,161.7c-.4,0-.6.3-.6.8v.6c0,.5.2.8.6.8h7.6c0-.8.3-1.5.5-2.2h-8.1Z"/>
          <path class="cls-4" d="M93.4,47.3c-5.7,0-10.9,2.2-14.9,6.7l-.4-.2v-4.8c0-.5-.3-.8-.8-.6l-3.5.5c-2.2.2-5.3.3-8.8.3h-8.9c-.4,0-.6.3-.6.8v.6c0,.5.2.8.6.8h8.2c.4,0,.7.3.7.8v108.8c0,.5-.3.8-.7.8h-.3c-.2.7-.4,1.4-.5,2.2h18.7c-.7-.8-1.5-1.5-2.2-2.2h-.8c-.4,0-.6-.3-.6-.8v-40.1c0-.5.3-.8.6-.8h8.8c20.2,0,34-12.8,34-37s-14.7-35.8-28.7-35.8h.1ZM86.3,116.5h-7c-.4,0-.6-.3-.6-.8v-55.8c1.9-5.4,6.6-8.7,11.1-8.7,9.8,0,16.9,10.3,16.9,31.7s-5.8,33.6-20.4,33.6Z"/>
        </g>
        <g>
          <path class="cls-4" d="M210.1,189.6v.6c0,.5-.3.8-.6.8h-31.9c-.4,0-.6-.3-.6-.8v-.6c0-.5.2-.8.6-.8h8.6c.2,0,.4-.4.4-.7v-.4c.4-1,.8-1.9,1.1-2.6,1-2.1,2.3-3.7,3.6-5,2.4-2.3,5-3.4,6.5-4,.5-.2.9-.3,1.4-.5.3-.1.5-.2.6-.1.2,0,.3.4.4.8l.3,5.6v6.3c0,.3.1.6.3.7h8.7c.4,0,.6.3.6.8h0Z"/>
          <path class="cls-4" d="M210.1,98.6v.6c0,.5-.3.8-.6.8h-8.4c-.4,0-.6.3-.6.8v29l-4.3,9c-.2.4-.2.8.1.8l2.5.5v.3l1.1,31.1c0,.6,0,.8-.2.9-.1,0-.2,0-.3.1-1.8.6-4.4.5-7.3.4-1.7,0-3.6-.2-5.5-.1v-30.3c0-.5-.3-.8-.6-.8h-9.7c-12.8,0-18.7,7.1-20.7,20.2v26.1c0,.5.3.8.6.8h8.4c.4,0,.6.3.6.8v.6c0,.5-.2.8-.6.8h-31.9c-.4,0-.6-.3-.6-.8v-.6c0-.5.3-.8.6-.8h8.4c.4,0,.6-.3.6-.8v-87.4c0-.5-.2-.8-.6-.8h-8.2c-.4,0-.6-.3-.6-.8v-.6c0-.5.3-.8.6-.8h8.9c3.5,0,6.7-.2,9.1-.3,1.4-.2,2.8-.3,4-.5.5-.2.8.2.8.6v51.6h.4c3.6-5.9,9-10.9,19.2-10.9h10.8c.4,0,.6-.3.6-.8v-36.8c0-.5-.3-.8-.6-.8h-8.4c-.4,0-.6-.3-.6-.8v-.6c0-.5.2-.8.6-.8h31.9c.4,0,.6.3.6.8h0v.3Z"/>
        </g>
        <path id="i" class="cls-4" d="M252.1,72.6h-31.9c-.4,0-.6.3-.6.8v.6c0,.5.3.8.6.8h8.4c.4,0,.6.3.6.8v87.4c0,.5-.3.8-.6.8h-8.4c-.4,0-.6.3-.6.8v.6c0,.5.3.8.6.8h27.9c0-.7.2-1.5.3-2.2h-4.6c-.4,0-.6-.3-.6-.8v-87.4c0-.5.3-.8.6-.8h8.4c.4,0,.6-.3.6-.8v-.6c0-.5-.3-.8-.6-.8h0ZM236.5,38.9c-4.8,0-8.8,5-8.8,10.6s4,10.4,8.8,10.4,8.6-5,8.6-10.4-4-10.6-8.6-10.6Z"/>
        <g>
          <path id="l" class="cls-4" d="M317.9,103.3h-.6c-.4,0-.6.3-.6.8-2.4,23.9-3.1,35.7-20.9,38.1l.6,3.1h21.5c.4,0,.6-.3.6-.8v-40.4c0-.5-.3-.8-.6-.8h0Z"/>
          <path class="cls-4" d="M271.7,55c0-.5-.3-.8-.6-.8h-8.2c-.4,0-.6-.3-.6-.8v-.6c0-.5.3-.8.6-.8h8.9c3.5,0,6.7-.2,9.1-.3l4-.5c.5-.2.8.2.8.6v90.4c0,.2.2.3.4.4h0c.9.8,1.8,1.7,2.6,2.6h-19.5c.2-.8.5-1.5.8-2.2h1c.4,0,.6-.3.6-.8V55h.1Z"/>
        </g>
        <path id="e" class="cls-4" d="M384,154.8c0-.5.3-.7.6-.7l4,.6v-17.3c0-.5-.2-.8-.6-.8h-.4c-.2,0-.5.3-.6.8-2.7,10.9-7.1,18.2-12.2,22.3.5,1.3,1,2.7,1.3,4.1,2.3-1.3,4.1-2.3,6.4-2.3s3.2,1.2,4.2,3.6c0,.5.3.8.6.8h.9c-.9-4.2-2.6-7.7-4-9.2-.4-.4-.5-.4-.4-.9v-.9h.2Z"/>
        <path class="cls-4" d="M386.5,73.4v26.4c0,.5-.2.8-.6.8h-.5c-.1,0-.5-.2-.6-.8-2.7-18.8-7.3-24.4-21.9-24.4h-12c-.4,0-.6.3-.6.8v34.5l.4.2c1.5-2.3,4.5-4.5,9.5-4.5,9.9,0,19.1,5.9,19.1,21.8s-.3.8-.6.8h-12.2c-.4,0-.6-.3-.6-.8v-.8c0-.5.2-.8.6-.8h1c.4,0,.6-.3.6-.8,0-11.8-3.6-16.8-8.2-16.8s-9,5-9,13.7v12.1c0,4.8.3,9.8,1.1,14.2.4,1.9.8,3.8,1.4,5.4.7,2,1.6,3.7,2.7,5.1,0,.2,0,.5.1.7l.9,7.1c-5.7-.8-10.1-3-13.2-6.4-1-1-1.8-2.2-2.6-3.5-3.4-5.6-4.8-13.3-4.8-22.1v-59.8c0-.5-.3-.8-.6-.8h-8.4c-.4,0-.6-.3-.6-.8v-.6c0-.5.3-.8.6-.8h58.6c.4,0,.6.3.6.8h-.2Z"/>
        <path id="a" class="cls-4" d="M424,148.5c0-1.1,0-2.2.1-3.2-3,0-6,.5-8.8,1.6-2.1.8-4,1.9-5.7,3.3.3,4.6,1.8,8.1,4.2,10.4-1.2-7.3,0-10.2,2.5-11.2,2.3-.9,5,0,8.9,5.4-.8-1.9-1.3-4.2-1.3-6.3h0Z"/>
        <path id="M" class="cls-1" d="M167,234.8l-.2-.7c-.1-.5-.5-.8-.8-.7l-5.1,1.4c-.3,0-.7-.2-.8-.7l-11.6-43h-15.9c-.4,0-.6-.3-.6-.8v-.6c0-.5.3-.8.6-.8h8.4c.4,0,.6-.3.6-.8v-22.5l-1.8-6.8c-5.4-19.9-17.2-24.7-29.4-21.4-9.1,2.5-14.2,8.3-15.8,12.3-.2.6-.3.3-.5.1-2.7-1.7-8.1-4.6-15.3-3.6v14.2c.5.4.9.8,1.4,1.3s1.4,1.4,2.2,2.2c1.2,1.2,2.3,2.5,3.5,3.9.3.3,0,.5,0,.9-4.9,13-7.6,28.8-4.4,40.6,2.5,9.3,9.3,18.8,19.8,31l8.5,9.9c.4.5.5.8.8.7l6.3-1.7c.3-.1.2-.4.3-1l1.7-12.7c2.9-22.5,2.6-37.3-1.1-50.8-2-7.3-6.9-21.4-21.3-32.9-.3-.3-.2-.3,0-.5.7-1.9,3.9-4,6.6-4.8,7.3-2,13.4,5.5,16.3,16.4l20.7,76.5c.1.5,0,.9-.3,1l-5.1,1.4c-.3,0-.5.5-.3,1l.2.7c.1.5.5.8.8.7l31.4-8.5c.3-.1.5-.5.3-1h0ZM117.2,229.1h-.4c-14.8-15-24.4-29.7-27.7-41.8-2.1-7.8-1.7-15.1-.9-16.5h.4c2.9,3.4,30.5,25.3,28.7,58.2h0ZM93.8,254.6l-.2-.7c0-.5-.5-.8-.8-.7l-5.1,1.4c-.3,0-.7-.2-.8-.7l-23.6-87c0-1.1.2-2,.3-3,0-.8.3-1.5.5-2.2.3-.9.6-1.6.9-2.3v-5.1c-1.3,2-2.3,4.4-3.2,7.4,0,.4-.2.8-.3,1.1-.2.8-.6,1.1-.7.9l-2.3-2.1-6.8-6.2-17.8,4.8c-.3,0-.5.5-.3,1l.2.7c0,.5.5.8.8.7l5-1.4c.3,0,.7.2.8.7l26.4,97.2c0,.5,0,.9-.3,1l-5.1,1.4c-.3,0-.5.5-.3,1l.2.7c0,.5.5.8.8.7l31.4-8.5c.3,0,.5-.5.3-1h0v.2Z"/>
        <path class="cls-1" d="M223.9,217.5v.6c-.2.5-.5.7-.8.7l-26.8-5.6c-.3,0-.4-.4-.3-.9v-.6c.2-.5.5-.7.8-.7l4.6,1c.3,0,.5-.2.5-.7l-1-20.2h8.6c.4,0,.6-.3.6-.8v-.6c0-.5-.3-.8-.6-.8h-8.7l-.2-4.9v-2.1c-.1,0-.4-5.6-.4-5.6,0-.4-.1-.7-.4-.8-.1,0-.4,0-.6.1-.5.2-.9.3-1.4.5-1.5.6-4.1,1.7-6.5,4-1.3,1.3-2.6,2.9-3.6,5-.4.8-.8,1.7-1.1,2.6-.1.4-.3.8-.4,1.2h-8.6c-.4,0-.6.3-.6.8v.6c0,.5.2.8.6.8h7.9c-.4,1.3-.7,2.7-1.1,4.3-2.1,10.2,1,12.3,2.3,11.9.2-.1.3,0,.3.4v1.1c0,.5-.2.8-.5.9-.3,0-5,1.4-10.1.3-6.8-1.4-12.4-6.8-9.7-19.9,3-14.6,11.8-17.1,19.8-17.3,1.9,0,3.8,0,5.5.1,2.9.1,5.5.2,7.3-.4.1,0,.2,0,.3-.1s.2-.3.2-.9l-1.1-31.1v-.3l-2.5-.5c-.3,0-.3-.4-.1-.8l4.3-9,5.3-11c.2-.4.7-.7.9-.6l10.1,2.1c.3,0,.5.4.5.9l4.2,94.3c0,.5.2.7.5.7l1.7.4c.3,0,.4.4.3.9h0Z"/>
        <path class="cls-1" d="M298.8,160.5h-.3c-.3.1-.5-.2-.6-.6-2.1-4.9-5.4-10.4-9.1-14.6-.8-1-1.7-1.9-2.6-2.6h0c-.1-.1-.3-.3-.4-.4v-6c4.6.5,7.2,1.3,7.3-.7,0-.5,0-.8.4-.9h.5c.3-.2.6.1.6.6l1.3,6.9.6,3.1,2.8,14.3c0,.5,0,.8-.4.9h0Z"/>
        <path class="cls-1" d="M293.8,258.5c-11.8,2.3-23.2-4.2-25.7-17.3-1.4-7.4.8-13.7,5.4-14.6,4.4-.9,9.1,3.7,10.3,10.2,1.2,6.1-1,11.1-5.8,12.7-1.2.4-1.6,1.8-.1,3.2,1.8,1.8,6.6,4,10.8,3.2,7-1.4,11-11,7-31.9l-2.9-14.9-.3-.3c-1.3,2.7-3,5.9-9.1,7.1-12,2.3-29.1-5.7-34.4-33.1-1.2-6.2-1.5-11.9-1-17.1,0-.7.2-1.5.3-2.2,2.1-14.2,10.6-23.7,23.3-26.8v3.7c-.6.7-1.2,1.5-1.7,2.5-.3.6-.6,1.4-.8,2.2-1.8,6.4-1,17,1.9,31.6,4.3,22.4,9.6,35.5,15.9,34.3,2.2-.4,4.1-2.6,5-6.3l-5.6-28.9c0-.5-.4-.7-.6-.7l-3.7.7c-.3,0-.6-.2-.6-.7v-.6c-.2-.5,0-.8.2-.9l22.6-4.4c.3,0,.6.2.6.7l10,52c4,20.8-8.1,33.8-21.2,36.3h0l.2.3Z"/>
        <g>
          <path class="cls-1" d="M350.3,243.2v.6c-.2.5-.4.8-.7.7l-29.5-4.8c-.3,0-.5-.4-.4-.9v-.6c.2-.5.4-.8.7-.7l4.5.7c.3,0,.6-.2.6-.7l10.9-67.7c.8-5,2.4-9.1,4.5-12.3.8,1.3,1.6,2.4,2.6,3.5-.2.6-.3,1.2-.4,1.9-2.5,15.3,7.6,41.4,4,64l-2.2,13.7c0,.5,0,.8.4.9l4.5.7c.3,0,.5.4.4.9h.1Z"/>
          <path class="cls-1" d="M400.7,157.5v.9c-.2.5-.4.6-.8.7-3.8,1.6-8.4,8.2-9.6,15.9l-11.5,71.2c0,.5,0,.8.4.9l5.3.9c.3,0,.5.4.4.9v.6c-.2.5-.4.8-.7.7l-24.6-4c-.3,0-.5-.4-.4-.9v-.6c.2-.5.4-.8.7-.7l5.7.9c.4,0,.6-.4.5-.7l-9.3-76.7-.9-7.1c0-.2,0-.5-.1-.7-.4-2.1-1.3-4-2.7-5.1-.6-1.7-1.1-3.5-1.4-5.4,2.9-1,5.9-1.2,8.9-.7,6.3,1,11.5,5.1,14.2,11.4.5,1.3,1,2.7,1.3,4.1.2.9.3,1.8.4,2.7l5.1,47.8h.5l6.4-39.6c.5-3.1.3-6.1-.3-8.9-.9-4.2-2.6-7.7-4-9.2-.4-.4-.5-.4-.4-.9v-.9c.2-.5.5-.7.8-.7l4,.6,11.7,1.9c.3,0,.5.4.4.9h0v-.2Z"/>
        </g>
        <path id="O" class="cls-1" d="M461.8,182.9c-3-7.7-6.4-14.1-10.1-19.3h-2.5c-.4,0-.6-.3-.6-.8v-.6c0-.5.2-.8.6-.8h.9c-8.2-10.9-17.4-16-26.1-16.1-3,0-6,.5-8.8,1.6-2.1.8-4,1.9-5.7,3.3-10.9,8.5-14.2,27.3-3.3,54.7,12.6,31.7,30.2,39.7,45.4,33.7,15.2-6,22.8-24,10.2-55.7h0ZM450.7,236.3c-5,2-10.6-2.6-25.1-39.2-7.1-17.9-10.7-29.3-11.9-36.4-1.2-7.3,0-10.2,2.5-11.2,2.3-.9,5,0,8.9,5.4.9,1.2,1.8,2.6,2.7,4.2,1,1,2.2,1.6,3.5,1.6s1.2-.1,1.8-.5c.4-.2.6,0,.8.5v.6c.3.5.1.8-.2.9-.9.5-1.9.9-3,1.2-.1,0-.2,0-.3.1,3.3,6.2,7.2,15,11.9,26.9,14.7,37,13.1,43.9,8.4,45.8h0Z"/>
        <g>
          <path class="cls-4" d="M480.5,162.2v.6c0,.5-.3.8-.6.8h-30.5c-.4,0-.6-.3-.6-.8v-.6c0-.5.2-.8.6-.8h8.5c.4,0,.5-.3.4-.8l-10.8-32.9c-.3-.6-.6-.8-1.3-.6-1.5.5-3.2.9-4.9,1.4-7.8,2.2-15.9,4.3-17.1,16.8-3,0-6,.5-8.8,1.6-2.1.8-4,1.9-5.7,3.3v-1.6c0-13.1,6.3-18.6,13.6-20.8,3.9-1.1,7.9-1.7,11.5-2.2,4-.5,7.6-1.1,10.4-2.2.4,0,.6-.3.4-1.1l-9.3-29.7h-2.7c-.4,0-.5-.3-.4-.8l7.2-22.7c.1-.5.5-.8.9-.8h1c.4,0,.8.3.9.8l29.9,91.6c.1.5.4.6.8.6h6.1c.4,0,.6.3.6.8h-.1Z"/>
          <path class="cls-4" d="M433.8,162.2c-.9.5-1.9.9-3,1.2-.1,0-.2,0-.3.1-2,.6-4.2,1-6.6,1-3.9,0-7.5-1.2-10.1-3.9-1.2-7.3,0-10.2,2.5-11.2,2.3-.9,5,0,8.9,5.4.7,1.7,1.6,3.2,2.7,4.2,1,1,2.2,1.6,3.5,1.6s1.2-.1,1.8-.5c.4-.2.6,0,.8.5v.6c.3.5.1.8-.2.9h0Z"/>
        </g>
      </g>
    </g>
  </g>
</svg>